<mxfile host="app.diagrams.net" agent="Mozilla/5.0 (Windows NT 10.0; Win64; x64) AppleWebKit/537.36 (KHTML, like Gecko) Chrome/140.0.0.0 Safari/537.36" version="28.2.0">
  <diagram name="PÃ¡gina-1" id="VMigHGruTWmfV3EXvRb0">
    <mxGraphModel grid="0" page="1" gridSize="10" guides="1" tooltips="1" connect="1" arrows="1" fold="1" pageScale="1" pageWidth="850" pageHeight="1100" background="light-dark(#FFFFFF,#FFFFFF)" math="0" shadow="0">
      <root>
        <mxCell id="0" />
        <mxCell id="1" parent="0" />
        <mxCell id="4b3qoKwIf2hm3HvLs_bc-27" value="&lt;font style=&quot;font-size: 24px;&quot;&gt;Hermes&lt;/font&gt;" style="swimlane;whiteSpace=wrap;html=1;startSize=49;fontColor=light-dark(#000000,#000000);strokeColor=light-dark(#000000,#000000);fillColor=none;" vertex="1" parent="1">
          <mxGeometry x="-278" y="131" width="817" height="465" as="geometry">
            <mxRectangle x="-278" y="131" width="119" height="49" as="alternateBounds" />
          </mxGeometry>
        </mxCell>
        <mxCell id="4b3qoKwIf2hm3HvLs_bc-41" value="" style="rounded=0;whiteSpace=wrap;html=1;fontColor=light-dark(#000000,#000000);strokeColor=light-dark(#000000,#000000);fillColor=none;" vertex="1" parent="4b3qoKwIf2hm3HvLs_bc-27">
          <mxGeometry y="340" width="344" height="125" as="geometry" />
        </mxCell>
        <mxCell id="4b3qoKwIf2hm3HvLs_bc-24" value="Parameter Store" style="sketch=0;outlineConnect=0;fontColor=light-dark(#000000,#000000);gradientColor=none;fillColor=#E7157B;strokeColor=light-dark(#000000,#000000);dashed=0;verticalLabelPosition=bottom;verticalAlign=top;align=center;html=1;fontSize=12;fontStyle=0;aspect=fixed;pointerEvents=1;shape=mxgraph.aws4.parameter_store;" vertex="1" parent="4b3qoKwIf2hm3HvLs_bc-27">
          <mxGeometry x="41" y="357" width="59.62" height="62" as="geometry" />
        </mxCell>
        <mxCell id="4b3qoKwIf2hm3HvLs_bc-26" value="IAM Role" style="sketch=0;outlineConnect=0;fontColor=light-dark(#000000,#000000);gradientColor=none;fillColor=#DD344C;strokeColor=light-dark(#000000,#000000);dashed=0;verticalLabelPosition=bottom;verticalAlign=top;align=center;html=1;fontSize=12;fontStyle=0;aspect=fixed;pointerEvents=1;shape=mxgraph.aws4.role;" vertex="1" parent="4b3qoKwIf2hm3HvLs_bc-27">
          <mxGeometry x="256" y="382" width="65.59" height="37" as="geometry" />
        </mxCell>
        <mxCell id="4b3qoKwIf2hm3HvLs_bc-25" value="CloudWatch Logs" style="sketch=0;outlineConnect=0;fontColor=light-dark(#000000,#000000);gradientColor=none;fillColor=#E7157B;strokeColor=light-dark(#000000,#000000);dashed=0;verticalLabelPosition=bottom;verticalAlign=top;align=center;html=1;fontSize=12;fontStyle=0;aspect=fixed;pointerEvents=1;shape=mxgraph.aws4.cloudwatch_logs;" vertex="1" parent="4b3qoKwIf2hm3HvLs_bc-27">
          <mxGeometry x="157" y="374" width="60.52" height="45" as="geometry" />
        </mxCell>
        <mxCell id="4b3qoKwIf2hm3HvLs_bc-30" value="SQS Queue" style="sketch=0;outlineConnect=0;fontColor=light-dark(#000000,#000000);gradientColor=none;fillColor=#E7157B;strokeColor=light-dark(#000000,#000000);dashed=0;verticalLabelPosition=bottom;verticalAlign=top;align=center;html=1;fontSize=12;fontStyle=0;aspect=fixed;pointerEvents=1;shape=mxgraph.aws4.queue;" vertex="1" parent="4b3qoKwIf2hm3HvLs_bc-27">
          <mxGeometry x="466.34" y="101.5" width="78" height="47" as="geometry" />
        </mxCell>
        <mxCell id="4b3qoKwIf2hm3HvLs_bc-31" value="SQS DLQ" style="sketch=0;outlineConnect=0;fontColor=light-dark(#000000,#000000);gradientColor=none;fillColor=#E7157B;strokeColor=light-dark(#000000,#000000);dashed=0;verticalLabelPosition=bottom;verticalAlign=top;align=center;html=1;fontSize=12;fontStyle=0;aspect=fixed;pointerEvents=1;shape=mxgraph.aws4.queue;" vertex="1" parent="4b3qoKwIf2hm3HvLs_bc-27">
          <mxGeometry x="466.34" y="222" width="78" height="47" as="geometry" />
        </mxCell>
        <mxCell id="4b3qoKwIf2hm3HvLs_bc-28" value="API Gateway" style="sketch=0;outlineConnect=0;fontColor=light-dark(#000000,#000000);gradientColor=none;fillColor=#E7157B;strokeColor=light-dark(#000000,#000000);dashed=0;verticalLabelPosition=bottom;verticalAlign=top;align=center;html=1;fontSize=12;fontStyle=0;aspect=fixed;pointerEvents=1;shape=mxgraph.aws4.endpoint;" vertex="1" parent="4b3qoKwIf2hm3HvLs_bc-27">
          <mxGeometry x="62.34" y="86" width="78" height="78" as="geometry" />
        </mxCell>
        <mxCell id="4b3qoKwIf2hm3HvLs_bc-29" value="Lambda Function&lt;div&gt;&lt;b&gt;API Recepcion Solicitudes Envio&lt;/b&gt;&lt;/div&gt;" style="sketch=0;outlineConnect=0;fontColor=light-dark(#000000,#000000);gradientColor=none;fillColor=#ED7100;strokeColor=light-dark(#000000,#000000);dashed=0;verticalLabelPosition=bottom;verticalAlign=top;align=center;html=1;fontSize=12;fontStyle=0;aspect=fixed;pointerEvents=1;shape=mxgraph.aws4.lambda_function;" vertex="1" parent="4b3qoKwIf2hm3HvLs_bc-27">
          <mxGeometry x="263.34" y="90" width="70" height="70" as="geometry" />
        </mxCell>
        <mxCell id="4b3qoKwIf2hm3HvLs_bc-22" value="" style="endArrow=classic;html=1;rounded=0;fontColor=light-dark(#000000,#000000);strokeColor=light-dark(#000000,#000000);" edge="1" parent="4b3qoKwIf2hm3HvLs_bc-27" source="4b3qoKwIf2hm3HvLs_bc-28" target="4b3qoKwIf2hm3HvLs_bc-29">
          <mxGeometry width="50" height="50" relative="1" as="geometry">
            <mxPoint x="126.34" y="124" as="sourcePoint" />
            <mxPoint x="237.34" y="124" as="targetPoint" />
          </mxGeometry>
        </mxCell>
        <mxCell id="4b3qoKwIf2hm3HvLs_bc-32" value="CloudWatch Alarm" style="sketch=0;outlineConnect=0;fontColor=light-dark(#000000,#000000);gradientColor=none;fillColor=#E7157B;strokeColor=light-dark(#000000,#000000);dashed=0;verticalLabelPosition=bottom;verticalAlign=top;align=center;html=1;fontSize=12;fontStyle=0;aspect=fixed;pointerEvents=1;shape=mxgraph.aws4.alarm;" vertex="1" parent="4b3qoKwIf2hm3HvLs_bc-27">
          <mxGeometry x="466.34" y="336" width="78" height="78" as="geometry" />
        </mxCell>
        <mxCell id="4b3qoKwIf2hm3HvLs_bc-33" value="" style="endArrow=classic;html=1;rounded=0;fontColor=light-dark(#000000,#000000);strokeColor=light-dark(#000000,#000000);" edge="1" parent="4b3qoKwIf2hm3HvLs_bc-27" source="4b3qoKwIf2hm3HvLs_bc-29" target="4b3qoKwIf2hm3HvLs_bc-30">
          <mxGeometry width="50" height="50" relative="1" as="geometry">
            <mxPoint x="313.34" y="168" as="sourcePoint" />
            <mxPoint x="363.34" y="118" as="targetPoint" />
          </mxGeometry>
        </mxCell>
        <mxCell id="4b3qoKwIf2hm3HvLs_bc-34" value="" style="endArrow=classic;html=1;rounded=0;fontColor=light-dark(#000000,#000000);strokeColor=light-dark(#000000,#000000);" edge="1" parent="4b3qoKwIf2hm3HvLs_bc-27" source="4b3qoKwIf2hm3HvLs_bc-30" target="4b3qoKwIf2hm3HvLs_bc-31">
          <mxGeometry width="50" height="50" relative="1" as="geometry">
            <mxPoint x="413.34" y="131" as="sourcePoint" />
            <mxPoint x="547.34" y="131" as="targetPoint" />
          </mxGeometry>
        </mxCell>
        <mxCell id="4b3qoKwIf2hm3HvLs_bc-36" value="" style="endArrow=classic;html=1;rounded=0;fontColor=light-dark(#000000,#000000);strokeColor=light-dark(#000000,#000000);" edge="1" parent="4b3qoKwIf2hm3HvLs_bc-27" source="4b3qoKwIf2hm3HvLs_bc-31" target="4b3qoKwIf2hm3HvLs_bc-32">
          <mxGeometry width="50" height="50" relative="1" as="geometry">
            <mxPoint x="520.34" y="197" as="sourcePoint" />
            <mxPoint x="520.34" y="271" as="targetPoint" />
          </mxGeometry>
        </mxCell>
        <mxCell id="4b3qoKwIf2hm3HvLs_bc-37" value="SNS Email Notification" style="sketch=0;outlineConnect=0;fontColor=light-dark(#000000,#000000);gradientColor=none;fillColor=#E7157B;strokeColor=light-dark(#000000,#000000);dashed=0;verticalLabelPosition=bottom;verticalAlign=top;align=center;html=1;fontSize=12;fontStyle=0;aspect=fixed;pointerEvents=1;shape=mxgraph.aws4.email_notification;" vertex="1" parent="4b3qoKwIf2hm3HvLs_bc-27">
          <mxGeometry x="659" y="336" width="78" height="78" as="geometry" />
        </mxCell>
        <mxCell id="4b3qoKwIf2hm3HvLs_bc-38" value="" style="endArrow=classic;html=1;rounded=0;fontColor=light-dark(#000000,#000000);strokeColor=light-dark(#000000,#000000);" edge="1" parent="4b3qoKwIf2hm3HvLs_bc-27" source="4b3qoKwIf2hm3HvLs_bc-32" target="4b3qoKwIf2hm3HvLs_bc-37">
          <mxGeometry width="50" height="50" relative="1" as="geometry">
            <mxPoint x="620.34" y="283" as="sourcePoint" />
            <mxPoint x="512.34" y="373" as="targetPoint" />
          </mxGeometry>
        </mxCell>
        <mxCell id="4b3qoKwIf2hm3HvLs_bc-39" value="Lambda Function&lt;div&gt;&lt;b&gt;Lambda Worker Envio Correos&lt;/b&gt;&lt;/div&gt;" style="sketch=0;outlineConnect=0;fontColor=light-dark(#000000,#000000);gradientColor=none;fillColor=#ED7100;strokeColor=light-dark(#000000,#000000);dashed=0;verticalLabelPosition=bottom;verticalAlign=top;align=center;html=1;fontSize=12;fontStyle=0;aspect=fixed;pointerEvents=1;shape=mxgraph.aws4.lambda_function;" vertex="1" parent="4b3qoKwIf2hm3HvLs_bc-27">
          <mxGeometry x="655.34" y="90" width="70" height="70" as="geometry" />
        </mxCell>
        <mxCell id="4b3qoKwIf2hm3HvLs_bc-40" value="" style="endArrow=classic;html=1;rounded=0;fontColor=light-dark(#000000,#000000);strokeColor=light-dark(#000000,#000000);" edge="1" parent="4b3qoKwIf2hm3HvLs_bc-27" source="4b3qoKwIf2hm3HvLs_bc-30" target="4b3qoKwIf2hm3HvLs_bc-39">
          <mxGeometry width="50" height="50" relative="1" as="geometry">
            <mxPoint x="377.34" y="263" as="sourcePoint" />
            <mxPoint x="427.34" y="213" as="targetPoint" />
          </mxGeometry>
        </mxCell>
        <mxCell id="4b3qoKwIf2hm3HvLs_bc-19" value="Client" style="sketch=0;outlineConnect=0;fontColor=light-dark(#000000,#000000);gradientColor=none;fillColor=#232F3D;strokeColor=light-dark(#000000,#000000);dashed=0;verticalLabelPosition=bottom;verticalAlign=top;align=center;html=1;fontSize=12;fontStyle=0;aspect=fixed;pointerEvents=1;shape=mxgraph.aws4.client;" vertex="1" parent="1">
          <mxGeometry x="-441" y="218" width="78" height="76" as="geometry" />
        </mxCell>
        <mxCell id="4b3qoKwIf2hm3HvLs_bc-21" value="" style="endArrow=classic;html=1;rounded=0;fontColor=light-dark(#000000,#000000);strokeColor=light-dark(#000000,#000000);" edge="1" parent="1" source="4b3qoKwIf2hm3HvLs_bc-19" target="4b3qoKwIf2hm3HvLs_bc-28">
          <mxGeometry width="50" height="50" relative="1" as="geometry">
            <mxPoint x="-332.99523836074707" y="256" as="sourcePoint" />
            <mxPoint x="-229.66" y="255.21546961325976" as="targetPoint" />
          </mxGeometry>
        </mxCell>
        <mxCell id="4b3qoKwIf2hm3HvLs_bc-23" value="&lt;font style=&quot;font-size: 10px;&quot;&gt;API Key&lt;/font&gt;" style="text;html=1;align=center;verticalAlign=middle;resizable=0;points=[];autosize=1;strokeColor=none;fillColor=none;fontColor=light-dark(#000000,#000000);" vertex="1" parent="1">
          <mxGeometry x="-339" y="227" width="54" height="26" as="geometry" />
        </mxCell>
        <mxCell id="4b3qoKwIf2hm3HvLs_bc-42" value="SES" style="sketch=0;outlineConnect=0;fontColor=light-dark(#000000,#000000);gradientColor=none;fillColor=#DD344C;strokeColor=light-dark(#000000,#000000);dashed=0;verticalLabelPosition=bottom;verticalAlign=top;align=center;html=1;fontSize=12;fontStyle=0;aspect=fixed;shape=mxgraph.aws4.email;" vertex="1" parent="1">
          <mxGeometry x="594" y="221" width="78" height="69" as="geometry" />
        </mxCell>
        <mxCell id="4b3qoKwIf2hm3HvLs_bc-43" value="" style="endArrow=classic;startArrow=classic;html=1;rounded=0;fontColor=light-dark(#000000,#000000);strokeColor=light-dark(#000000,#000000);" edge="1" parent="1" source="4b3qoKwIf2hm3HvLs_bc-39" target="4b3qoKwIf2hm3HvLs_bc-42">
          <mxGeometry width="50" height="50" relative="1" as="geometry">
            <mxPoint x="354" y="415" as="sourcePoint" />
            <mxPoint x="404" y="365" as="targetPoint" />
          </mxGeometry>
        </mxCell>
        <mxCell id="4b3qoKwIf2hm3HvLs_bc-44" value="User" style="sketch=0;outlineConnect=0;fontColor=light-dark(#000000,#000000);gradientColor=none;fillColor=#232F3D;strokeColor=light-dark(#000000,#000000);dashed=0;verticalLabelPosition=bottom;verticalAlign=top;align=center;html=1;fontSize=12;fontStyle=0;aspect=fixed;pointerEvents=1;shape=mxgraph.aws4.user;" vertex="1" parent="1">
          <mxGeometry x="740" y="218" width="78" height="78" as="geometry" />
        </mxCell>
        <mxCell id="4b3qoKwIf2hm3HvLs_bc-45" value="" style="endArrow=classic;html=1;rounded=0;fontColor=light-dark(#000000,#000000);strokeColor=light-dark(#000000,#000000);" edge="1" parent="1" source="4b3qoKwIf2hm3HvLs_bc-42" target="4b3qoKwIf2hm3HvLs_bc-44">
          <mxGeometry width="50" height="50" relative="1" as="geometry">
            <mxPoint x="285" y="306" as="sourcePoint" />
            <mxPoint x="335" y="256" as="targetPoint" />
          </mxGeometry>
        </mxCell>
        <mxCell id="4b3qoKwIf2hm3HvLs_bc-46" value="Production Team" style="sketch=0;outlineConnect=0;fontColor=light-dark(#000000,#000000);gradientColor=none;fillColor=#232F3D;strokeColor=light-dark(#000000,#000000);dashed=0;verticalLabelPosition=bottom;verticalAlign=top;align=center;html=1;fontSize=12;fontStyle=0;aspect=fixed;pointerEvents=1;shape=mxgraph.aws4.users;" vertex="1" parent="1">
          <mxGeometry x="594" y="467" width="78" height="78" as="geometry" />
        </mxCell>
        <mxCell id="4b3qoKwIf2hm3HvLs_bc-47" value="" style="endArrow=classic;html=1;rounded=0;fontColor=light-dark(#000000,#000000);strokeColor=light-dark(#000000,#000000);" edge="1" parent="1" source="4b3qoKwIf2hm3HvLs_bc-37" target="4b3qoKwIf2hm3HvLs_bc-46">
          <mxGeometry width="50" height="50" relative="1" as="geometry">
            <mxPoint x="619" y="592" as="sourcePoint" />
            <mxPoint x="669" y="542" as="targetPoint" />
          </mxGeometry>
        </mxCell>
      </root>
    </mxGraphModel>
  </diagram>
</mxfile>
